<?xml version="1.0" encoding="utf-8"?>
<svg xmlns="http://www.w3.org/2000/svg" xmlns:xlink="http://www.w3.org/1999/xlink">
    <symbol fill="none" viewBox="0 0 40 40" id="icon-copy" xmlns="http://www.w3.org/2000/svg">
        <path fill-rule="evenodd" clip-rule="evenodd"
              d="M24.125 9.917h-11a1.839 1.839 0 00-1.833 1.833v12.833h1.833V11.75h11V9.917zm2.75 3.666H16.792a1.839 1.839 0 00-1.834 1.834V28.25c0 1.008.825 1.833 1.834 1.833h10.083a1.839 1.839 0 001.833-1.833V15.417a1.839 1.839 0 00-1.833-1.834zM16.792 28.25h10.083V15.417H16.792V28.25z"
              fill="#000"/>
    </symbol>
    <symbol fill="none" viewBox="0 0 40 40" id="icon-facebook" xmlns="http://www.w3.org/2000/svg">
        <path d="M17.486 31V20.713H14v-4.088h3.486v-3.22C17.486 9.904 19.65 8 22.81 8c1.514 0 2.814.112 3.191.162v3.656h-2.19c-1.72 0-2.05.809-2.05 1.99v2.817h3.876l-.531 4.088h-3.346V31"
              fill="#000"/>
    </symbol>
    <symbol fill="none" viewBox="0 0 40 40" id="icon-line" xmlns="http://www.w3.org/2000/svg">
        <path d="M22.147 17.072v3.333c0 .084-.062.15-.142.15h-.51a.145.145 0 01-.116-.061l-1.455-2.063v1.978c0 .085-.062.15-.143.15h-.509c-.08 0-.142-.065-.142-.15v-3.332c0-.085.062-.15.142-.15h.505c.044 0 .093.023.116.065l1.455 2.063v-1.978c0-.085.063-.15.143-.15H22c.08-.005.147.065.147.145zm-3.66-.15h-.51c-.08 0-.142.066-.142.15v3.333c0 .084.062.15.143.15h.509c.08 0 .143-.066.143-.15v-3.333c0-.08-.063-.15-.143-.15zm-1.228 2.794H15.87v-2.644c0-.084-.062-.15-.142-.15h-.51c-.08 0-.142.066-.142.15v3.333c0 .042.013.075.04.103a.147.147 0 00.098.042h2.04c.08 0 .143-.066.143-.15v-.534c0-.08-.062-.15-.138-.15zm7.567-2.794h-2.04a.147.147 0 00-.143.15v3.333c0 .08.062.15.143.15h2.04c.08 0 .143-.066.143-.15v-.535c0-.084-.063-.15-.143-.15h-1.389v-.562h1.389c.08 0 .143-.066.143-.15v-.54c0-.084-.063-.15-.143-.15h-1.389v-.562h1.389c.08 0 .143-.065.143-.15v-.534c-.005-.08-.067-.15-.143-.15zM30 12.83v13.373c-.005 2.1-1.643 3.802-3.647 3.797H13.616c-2-.005-3.62-1.73-3.616-3.83V12.797c.005-2.1 1.647-3.802 3.647-3.797h12.737c2 .005 3.62 1.725 3.616 3.83zm-2.75 5.747c0-3.422-3.268-6.207-7.281-6.207-4.014 0-7.282 2.785-7.282 6.207 0 3.065 2.59 5.634 6.09 6.121.852.193.754.52.562 1.725-.031.193-.147.755.63.413.776-.342 4.192-2.592 5.723-4.44 1.053-1.218 1.558-2.45 1.558-3.82z"
              fill="#000"/>
    </symbol>
    <symbol fill="none" viewBox="0 0 40 40" id="icon-linkedin" xmlns="http://www.w3.org/2000/svg">
        <path d="M15.029 29h-3.732V16.983h3.732V29zm-1.868-13.657c-1.193 0-2.161-.988-2.161-2.181a2.162 2.162 0 014.322 0c0 1.193-.968 2.181-2.16 2.181zM28.996 29h-3.724v-5.85c0-1.394-.028-3.182-1.94-3.182-1.94 0-2.237 1.515-2.237 3.082V29h-3.728V16.983h3.579v1.639h.052c.498-.944 1.715-1.94 3.531-1.94 3.776 0 4.471 2.486 4.471 5.717V29h-.004z"
              fill="#000"/>
    </symbol>
    <symbol fill="none" viewBox="0 0 40 40" id="icon-qzone" xmlns="http://www.w3.org/2000/svg">
        <path d="M30.988 17.562c-.029-.089-.114-.195-.304-.225l-6.74-1.227s-.097-.02-.183-.061c-.082-.041-.114-.146-.114-.146s-3.237-5.532-3.328-5.695C20.23 10.044 20.097 10 20 10s-.229.044-.319.208c-.089.163-3.327 5.694-3.327 5.694s-.032.106-.115.147c-.085.041-.183.061-.183.061s-6.55 1.193-6.739 1.223c-.19.034-.276.14-.305.225a.4.4 0 00.115.392l4.917 4.789s.065.068.107.15c.015.088.004.183.004.183s-1.089 6.315-1.118 6.495a.39.39 0 00.147.375c.075.054.212.092.384.01.175-.081 6.245-2.844 6.245-2.844s.09-.037.186-.05c.093-.017.183.05.183.05s6.073 2.763 6.245 2.845c.172.081.311.044.387-.011a.402.402 0 00.147-.375l-.856-4.949c.806-.473 1.307-.905 1.698-1.525-2.378.845-5.508 1.498-8.63 1.628-.842.034-2.21.085-3.187-.014-.62-.061-1.07-.126-1.139-.381-.047-.187.05-.402.501-.725.874-.627 1.748-1.254 2.622-1.877 1.178-.845 3.263-2.156 3.263-2.384 0-.246-1.966-.678-3.7-.678-1.783 0-2.087.113-2.578.147-.448.027-.705.003-.738-.123-.053-.215.169-.338.54-.494.65-.276 1.705-.518 1.82-.545.179-.047 2.825-.705 5.15-.467 1.206.12 2.976.583 2.976 1.11 0 .3-1.58 1.305-2.958 2.266-1.053.736-2.034 1.362-2.034 1.471 0 .3 3.241 1.083 6.134.883l.004-.02a.94.94 0 01.107-.15l4.917-4.786a.403.403 0 00.115-.392z"
              fill="#000"/>
    </symbol>
    <symbol fill="none" viewBox="0 0 40 40" id="icon-reddit" xmlns="http://www.w3.org/2000/svg">
        <path d="M27.77 17.659c-.633 0-1.189.277-1.598.71-1.505-1.103-3.532-1.812-5.78-1.888l1.169-5.57 3.718.883c0 .964.741 1.75 1.652 1.75.927 0 1.673-.808 1.673-1.772S27.863 10 26.931 10c-.65 0-1.21.415-1.488.982l-4.106-.964c-.206-.058-.409.098-.464.317l-1.281 6.141c-2.23.098-4.236.808-5.746 1.91a2.182 2.182 0 00-1.618-.727c-2.344 0-3.111 3.33-.966 4.468-.075.352-.11.727-.11 1.102 0 3.74 3.98 6.771 8.866 6.771 4.906 0 8.886-3.03 8.886-6.77 0-.376-.038-.768-.131-1.121 2.104-1.143 1.328-4.45-1.003-4.45zm-13.106 4.704c0-.982.742-1.772 1.674-1.772.91 0 1.652.786 1.652 1.772 0 .964-.742 1.75-1.652 1.75-.928.004-1.674-.786-1.674-1.75zm9.034 4.174c-1.535 1.624-5.864 1.624-7.398 0-.169-.157-.169-.433 0-.612a.389.389 0 01.556 0c1.172 1.272 5.059 1.294 6.281 0a.389.389 0 01.556 0c.173.178.173.455.005.611zm-.034-2.42c-.91 0-1.652-.785-1.652-1.75 0-.981.741-1.771 1.652-1.771.927 0 1.673.785 1.673 1.772-.004.96-.746 1.75-1.673 1.75z"
              fill="#000"/>
    </symbol>
    <symbol fill="none" viewBox="0 0 40 40" id="icon-telegram" xmlns="http://www.w3.org/2000/svg">
        <path d="M30.94 12.639l-3.169 15.274c-.239 1.078-.862 1.347-1.748.839l-4.829-3.637-2.33 2.29c-.258.264-.473.485-.97.485l.347-5.027 8.949-8.265c.389-.354-.085-.55-.605-.196l-11.063 7.12-4.763-1.524c-1.036-.33-1.055-1.059.215-1.567l18.63-7.335c.863-.33 1.617.196 1.336 1.543z"
              fill="#000"/>
    </symbol>
    <symbol fill="none" viewBox="0 0 40 40" id="icon-tumblr" xmlns="http://www.w3.org/2000/svg">
        <path d="M25.91 28.762c-.537.566-1.973 1.238-3.843 1.238-4.765 0-5.799-3.469-5.799-5.492v-5.625h-1.873a.394.394 0 01-.395-.39v-2.657c0-.281.178-.531.446-.625 2.446-.852 3.215-2.969 3.325-4.574.032-.43.257-.637.636-.637h2.797c.216 0 .394.176.394.39v4.5h3.274a.39.39 0 01.395.387v3.192c0 .215-.178.39-.395.39h-3.29v5.203c0 1.336.935 2.094 2.683 1.399.19-.074.355-.125.5-.086.139.035.23.133.293.309l.868 2.511c.07.196.13.414-.016.567z"
              fill="#000"/>
    </symbol>
    <symbol fill="none" viewBox="0 0 40 40" id="icon-twitter" xmlns="http://www.w3.org/2000/svg">
        <path d="M28.739 16.237c.014.186.014.372.014.558 0 5.67-4.537 12.205-12.83 12.205-2.554 0-4.927-.704-6.923-1.926.363.04.712.053 1.089.053a9.327 9.327 0 005.598-1.832c-1.983-.04-3.644-1.276-4.216-2.976.279.04.558.067.851.067a5 5 0 001.187-.146c-2.066-.399-3.616-2.125-3.616-4.21v-.053c.6.318 1.299.517 2.038.544-1.214-.77-2.01-2.085-2.01-3.573a4.1 4.1 0 01.615-2.164c2.22 2.603 5.555 4.303 9.296 4.489a4.615 4.615 0 01-.111-.983c0-2.364 2.01-4.29 4.509-4.29 1.298 0 2.47.518 3.294 1.355a9.16 9.16 0 002.862-1.036c-.335.996-1.047 1.833-1.982 2.364A9.404 9.404 0 0031 14.019a9.45 9.45 0 01-2.261 2.218z"
              fill="#000"/>
    </symbol>
    <symbol fill="none" viewBox="0 0 40 40" id="icon-viber" xmlns="http://www.w3.org/2000/svg">
        <path d="M27.632 10.24c-.55-.526-2.772-2.201-7.729-2.224 0 0-5.842-.364-8.688 2.35-1.583 1.643-2.141 4.055-2.202 7.042-.06 2.987-.134 8.584 5.06 10.102h.005l-.005 2.318s-.034.938.563 1.127c.718.234 1.142-.48 1.83-1.249a69.62 69.62 0 001.288-1.513c3.555.31 6.284-.4 6.595-.503.718-.243 4.78-.782 5.437-6.379.683-5.776-.33-9.423-2.154-11.071zm.601 10.65c-.558 4.67-3.85 4.967-4.455 5.17-.26.085-2.66.704-5.674.502 0 0-2.249 2.816-2.95 3.549-.229.238-.48.215-.475-.256 0-.31.017-3.85.017-3.85-.004 0-.004 0 0 0-4.402-1.266-4.143-6.032-4.095-8.525.047-2.493.501-4.536 1.842-5.91 2.409-2.27 7.37-1.932 7.37-1.932 4.19.018 6.197 1.33 6.664 1.77 1.544 1.374 2.331 4.662 1.756 9.481zm-6.012-3.63c.018.386-.54.413-.558.027-.047-.988-.492-1.469-1.41-1.523-.371-.022-.337-.602.03-.58 1.208.068 1.878.787 1.938 2.076zm.878.508c.044-1.905-1.102-3.396-3.278-3.562-.367-.027-.329-.607.04-.58 2.508.189 3.844 1.981 3.796 4.155-.004.386-.566.368-.558-.013zm2.033.601c.004.387-.558.391-.558.005-.026-3.66-2.374-5.655-5.224-5.677-.368-.005-.368-.58 0-.58 3.187.023 5.752 2.309 5.782 6.252zm-.489 4.407v.009c-.467.853-1.34 1.796-2.24 1.495l-.009-.013c-.912-.265-3.061-1.415-4.42-2.538-.7-.575-1.34-1.253-1.833-1.904a14.639 14.639 0 01-1.332-2.093c-.921-1.73-1.125-2.502-1.125-2.502-.29-.934.614-1.842 1.44-2.327h.01c.397-.215.777-.144 1.033.175 0 0 .536.665.765.993.216.305.506.795.658 1.069.263.49.099.988-.16 1.195l-.52.431c-.263.22-.229.629-.229.629s.77 3.023 3.646 3.786c0 0 .394.036.606-.238l.415-.539c.199-.27.679-.44 1.15-.166.636.373 1.445.952 1.981 1.478.303.256.372.646.164 1.06z"
              fill="#000"/>
    </symbol>
    <symbol fill="none" viewBox="0 0 40 40" id="icon-vk" xmlns="http://www.w3.org/2000/svg">
        <path d="M32.43 13.95c.172-.547 0-.95-.826-.95h-2.733c-.697 0-1.017.346-1.188.73 0 0-1.393 3.199-3.36 5.273-.636.599-.929.791-1.277.791-.172 0-.436-.192-.436-.739v-5.106c0-.656-.195-.949-.77-.949h-4.298c-.436 0-.696.306-.696.59 0 .622.984.766 1.086 2.516v3.798c0 .831-.158.984-.506.984-.928 0-3.184-3.211-4.52-6.886-.27-.713-.534-1.002-1.235-1.002H8.937c-.78 0-.937.346-.937.73 0 .683.928 4.074 4.32 8.554C14.58 25.342 17.766 27 20.66 27c1.741 0 1.954-.367 1.954-1.002 0-2.922-.157-3.198.715-3.198.404 0 1.1.192 2.724 1.667C27.91 26.217 28.216 27 29.256 27h2.733c.78 0 1.174-.367.947-1.094-.52-1.527-4.033-4.668-4.19-4.878-.404-.49-.288-.709 0-1.146.004-.005 3.34-4.432 3.684-5.933z"
              fill="#000"/>
    </symbol>
    <symbol fill="none" viewBox="0 0 40 40" id="icon-whatsapp" xmlns="http://www.w3.org/2000/svg">
        <path d="M27.005 12.906A9.836 9.836 0 0019.995 10c-5.464 0-9.91 4.446-9.91 9.91 0 1.746.455 3.452 1.321 4.956L10 30l5.255-1.38a9.88 9.88 0 004.736 1.206h.005c5.46 0 10.004-4.447 10.004-9.91 0-2.648-1.125-5.135-2.995-7.01zm-7.01 15.25A8.223 8.223 0 0115.8 27.01l-.299-.179-3.116.817.83-3.04-.196-.312a8.21 8.21 0 01-1.26-4.384c0-4.54 3.697-8.237 8.242-8.237 2.2 0 4.268.857 5.821 2.415 1.554 1.558 2.51 3.625 2.505 5.826 0 4.545-3.79 8.241-8.33 8.241zm4.518-6.17c-.245-.124-1.464-.723-1.692-.803-.227-.085-.392-.125-.558.125-.165.25-.638.804-.785.973-.143.165-.29.188-.536.063-1.455-.728-2.41-1.3-3.37-2.947-.255-.437.254-.406.727-1.352.08-.166.04-.308-.022-.433-.063-.125-.558-1.344-.764-1.84-.2-.482-.406-.415-.558-.424-.142-.009-.308-.009-.473-.009a.918.918 0 00-.66.308c-.228.25-.867.848-.867 2.067 0 1.219.889 2.398 1.01 2.563.124.165 1.745 2.665 4.231 3.74 1.572.68 2.188.738 2.974.621.477-.071 1.464-.598 1.67-1.178.205-.58.205-1.076.142-1.179-.058-.111-.223-.174-.469-.294z"
              fill="#000"/>
    </symbol>
</svg>
